<svg xmlns="http://www.w3.org/2000/svg" viewBox="0 0 200 200">
    <!-- Body -->
    <ellipse cx="100" cy="150" rx="50" ry="30" fill="gray" />

    <!-- Head -->
    <circle cx="100" cy="100" r="40" fill="gray" />

    <!-- Ears -->
    <polygon points="70,60 90,90 50,90" fill="gray" />
    <polygon points="130,60 110,90 150,90" fill="gray" />

    <!-- Eyes -->
    <circle cx="85" cy="90" r="5" fill="#894141" />
    <circle cx="115" cy="90" r="5" fill="white" />
    <circle cx="85" cy="90" r="2" fill="black" />
    <circle cx="115" cy="90" r="2" fill="black" />

    <!-- Nose -->
    <polygon points="95,110 105,110 100,120" fill="pink" />

    <!-- Mouth -->
    <path d="M 95 120 Q 100 130 105 120" stroke="black" stroke-width="2" fill="none" />

    <!-- Whiskers -->
    <line x1="70" y1="110" x2="90" y2="110" stroke="black" stroke-width="2" />
    <line x1="110" y1="110" x2="130" y2="110" stroke="black" stroke-width="2" />
    <line x1="70" y1="115" x2="90" y2="115" stroke="black" stroke-width="2" />
    <line x1="110" y1="115" x2="130" y2="115" stroke="black" stroke-width="2" />
    <line x1="70" y1="105" x2="90" y2="105" stroke="black" stroke-width="2" />
    <line x1="110" y1="105" x2="130" y2="105" stroke="black" stroke-width="2" />
</svg>